<svg width="500" height="500" viewBox="0 0 500 500" fill="none" xmlns="http://www.w3.org/2000/svg">
<rect width="500" height="500" rx="250" fill="#BFDBFE"/>
<path d="M213.161 213.373C212.422 206.455 209.306 201.069 203.815 197.214C198.375 193.359 191.299 191.432 182.586 191.432C176.461 191.432 171.206 192.356 166.823 194.204C162.44 196.052 159.087 198.561 156.764 201.729C154.44 204.898 153.252 208.515 153.199 212.581C153.199 215.961 153.965 218.891 155.496 221.373C157.081 223.855 159.219 225.967 161.912 227.71C164.605 229.4 167.589 230.826 170.863 231.987C174.137 233.149 177.438 234.126 180.764 234.918L195.973 238.72C202.098 240.146 207.986 242.073 213.637 244.503C219.34 246.932 224.436 249.994 228.924 253.691C233.465 257.387 237.056 261.85 239.697 267.077C242.337 272.305 243.657 278.431 243.657 285.454C243.657 294.959 241.228 303.329 236.37 310.564C231.512 317.746 224.488 323.369 215.3 327.436C206.164 331.449 195.101 333.456 182.111 333.456C169.49 333.456 158.533 331.502 149.239 327.594C139.998 323.686 132.763 317.983 127.535 310.485C122.36 302.986 119.561 293.85 119.139 283.078H148.051C148.473 288.728 150.216 293.428 153.278 297.177C156.341 300.927 160.328 303.725 165.239 305.574C170.203 307.422 175.748 308.346 181.873 308.346C188.263 308.346 193.86 307.395 198.666 305.494C203.524 303.54 207.326 300.847 210.072 297.415C212.818 293.93 214.217 289.864 214.27 285.217C214.217 280.992 212.976 277.507 210.547 274.761C208.118 271.962 204.712 269.639 200.329 267.79C195.999 265.889 190.93 264.199 185.121 262.721L166.665 257.968C153.305 254.536 142.744 249.334 134.981 242.364C127.271 235.341 123.416 226.02 123.416 214.403C123.416 204.845 126.004 196.475 131.179 189.293C136.407 182.111 143.509 176.54 152.486 172.58C161.463 168.566 171.629 166.56 182.982 166.56C194.494 166.56 204.58 168.566 213.241 172.58C221.954 176.54 228.792 182.059 233.756 189.135C238.72 196.158 241.281 204.237 241.439 213.373H213.161ZM269.856 331V168.778H375.364V193.412H299.243V237.453H369.898V262.087H299.243V306.366H375.997V331H269.856Z" fill="#1D4ED8"/>
</svg>
